<?xml version="1.0" encoding="UTF-8" standalone="no"?>
<!DOCTYPE svg PUBLIC "-//W3C//DTD SVG 1.1//EN"
 "http://www.w3.org/Graphics/SVG/1.1/DTD/svg11.dtd">
<!-- Generated by graphviz version 2.43.0 (0)
 -->
<!-- Title: arbre Pages: 1 -->
<svg width="359pt" height="566pt"
 viewBox="0.00 0.00 358.50 566.00" xmlns="http://www.w3.org/2000/svg" xmlns:xlink="http://www.w3.org/1999/xlink">
<g id="graph0" class="graph" transform="scale(1 1) rotate(0) translate(4 562)">
<title>arbre</title>
<polygon fill="white" stroke="transparent" points="-4,4 -4,-562 354.5,-562 354.5,4 -4,4"/>
<!-- vertebres -->
<g id="node1" class="node">
<title>vertebres</title>
<polygon fill="none" stroke="black" points="99.5,-558 13.5,-558 13.5,-522 99.5,-522 99.5,-558"/>
<text text-anchor="middle" x="56.5" y="-536.3" font-family="Times,serif" font-size="14.00">vertebres</text>
</g>
<!-- limace -->
<g id="node2" class="node">
<title>limace</title>
<polygon fill="none" stroke="black" points="63,-471 0,-471 0,-435 63,-435 63,-471"/>
<text text-anchor="middle" x="31.5" y="-449.3" font-family="Times,serif" font-size="14.00">limace</text>
</g>
<!-- vertebres&#45;&gt;limace -->
<g id="edge1" class="edge">
<title>vertebres&#45;&gt;limace</title>
<path fill="none" stroke="black" d="M51.44,-521.8C47.98,-510.05 43.33,-494.24 39.39,-480.84"/>
<polygon fill="red" stroke="black" points="42.73,-479.78 36.55,-471.18 36.02,-481.76 42.73,-479.78"/>
<text text-anchor="middle" x="59" y="-492.8" font-family="Times,serif" font-size="14.00" fill="red">non</text>
</g>
<!-- machoires -->
<g id="node3" class="node">
<title>machoires</title>
<polygon fill="none" stroke="black" points="171.5,-471 81.5,-471 81.5,-435 171.5,-435 171.5,-471"/>
<text text-anchor="middle" x="126.5" y="-449.3" font-family="Times,serif" font-size="14.00">machoires</text>
</g>
<!-- vertebres&#45;&gt;machoires -->
<g id="edge2" class="edge">
<title>vertebres&#45;&gt;machoires</title>
<path fill="none" stroke="black" d="M70.67,-521.8C80.72,-509.59 94.39,-492.99 105.68,-479.28"/>
<polygon fill="green" stroke="black" points="108.7,-481.12 112.36,-471.18 103.3,-476.67 108.7,-481.12"/>
<text text-anchor="middle" x="107.5" y="-492.8" font-family="Times,serif" font-size="14.00" fill="green">oui</text>
</g>
<!-- lamproie -->
<g id="node4" class="node">
<title>lamproie</title>
<polygon fill="none" stroke="black" points="132.5,-384 52.5,-384 52.5,-348 132.5,-348 132.5,-384"/>
<text text-anchor="middle" x="92.5" y="-362.3" font-family="Times,serif" font-size="14.00">lamproie</text>
</g>
<!-- machoires&#45;&gt;lamproie -->
<g id="edge3" class="edge">
<title>machoires&#45;&gt;lamproie</title>
<path fill="none" stroke="black" d="M119.62,-434.8C114.92,-423.05 108.6,-407.24 103.24,-393.84"/>
<polygon fill="red" stroke="black" points="106.33,-392.16 99.37,-384.18 99.83,-394.76 106.33,-392.16"/>
<text text-anchor="middle" x="126" y="-405.8" font-family="Times,serif" font-size="14.00" fill="red">non</text>
</g>
<!-- doigts -->
<g id="node5" class="node">
<title>doigts</title>
<polygon fill="none" stroke="black" points="212,-384 151,-384 151,-348 212,-348 212,-384"/>
<text text-anchor="middle" x="181.5" y="-362.3" font-family="Times,serif" font-size="14.00">doigts</text>
</g>
<!-- machoires&#45;&gt;doigts -->
<g id="edge4" class="edge">
<title>machoires&#45;&gt;doigts</title>
<path fill="none" stroke="black" d="M137.63,-434.8C145.46,-422.7 156.07,-406.3 164.89,-392.67"/>
<polygon fill="green" stroke="black" points="167.89,-394.47 170.39,-384.18 162.02,-390.67 167.89,-394.47"/>
<text text-anchor="middle" x="168.5" y="-405.8" font-family="Times,serif" font-size="14.00" fill="green">oui</text>
</g>
<!-- carpe -->
<g id="node6" class="node">
<title>carpe</title>
<polygon fill="none" stroke="black" points="176.5,-297 120.5,-297 120.5,-261 176.5,-261 176.5,-297"/>
<text text-anchor="middle" x="148.5" y="-275.3" font-family="Times,serif" font-size="14.00">carpe</text>
</g>
<!-- doigts&#45;&gt;carpe -->
<g id="edge5" class="edge">
<title>doigts&#45;&gt;carpe</title>
<path fill="none" stroke="black" d="M172.53,-347.77C169.78,-342.18 166.86,-335.89 164.5,-330 161.56,-322.67 158.78,-314.58 156.39,-307.07"/>
<polygon fill="red" stroke="black" points="159.68,-305.86 153.38,-297.34 152.99,-307.93 159.68,-305.86"/>
<text text-anchor="middle" x="178" y="-318.8" font-family="Times,serif" font-size="14.00" fill="red">non</text>
</g>
<!-- amnios -->
<g id="node7" class="node">
<title>amnios</title>
<polygon fill="none" stroke="black" points="262.5,-297 194.5,-297 194.5,-261 262.5,-261 262.5,-297"/>
<text text-anchor="middle" x="228.5" y="-275.3" font-family="Times,serif" font-size="14.00">amnios</text>
</g>
<!-- doigts&#45;&gt;amnios -->
<g id="edge6" class="edge">
<title>doigts&#45;&gt;amnios</title>
<path fill="none" stroke="black" d="M191.01,-347.8C197.64,-335.82 206.59,-319.62 214.09,-306.06"/>
<polygon fill="green" stroke="black" points="217.23,-307.62 219,-297.18 211.1,-304.23 217.23,-307.62"/>
<text text-anchor="middle" x="219.5" y="-318.8" font-family="Times,serif" font-size="14.00" fill="green">oui</text>
</g>
<!-- grenouille -->
<g id="node8" class="node">
<title>grenouille</title>
<polygon fill="none" stroke="black" points="235,-210 146,-210 146,-174 235,-174 235,-210"/>
<text text-anchor="middle" x="190.5" y="-188.3" font-family="Times,serif" font-size="14.00">grenouille</text>
</g>
<!-- amnios&#45;&gt;grenouille -->
<g id="edge7" class="edge">
<title>amnios&#45;&gt;grenouille</title>
<path fill="none" stroke="black" d="M220.81,-260.8C215.5,-248.93 208.35,-232.93 202.32,-219.45"/>
<polygon fill="red" stroke="black" points="205.46,-217.88 198.18,-210.18 199.06,-220.73 205.46,-217.88"/>
<text text-anchor="middle" x="226" y="-231.8" font-family="Times,serif" font-size="14.00" fill="red">non</text>
</g>
<!-- placenta -->
<g id="node9" class="node">
<title>placenta</title>
<polygon fill="none" stroke="black" points="330,-210 253,-210 253,-174 330,-174 330,-210"/>
<text text-anchor="middle" x="291.5" y="-188.3" font-family="Times,serif" font-size="14.00">placenta</text>
</g>
<!-- amnios&#45;&gt;placenta -->
<g id="edge8" class="edge">
<title>amnios&#45;&gt;placenta</title>
<path fill="none" stroke="black" d="M241.25,-260.8C250.3,-248.59 262.6,-231.99 272.76,-218.28"/>
<polygon fill="green" stroke="black" points="275.63,-220.29 278.77,-210.18 270,-216.13 275.63,-220.29"/>
<text text-anchor="middle" x="275.5" y="-231.8" font-family="Times,serif" font-size="14.00" fill="green">oui</text>
</g>
<!-- plumes -->
<g id="node10" class="node">
<title>plumes</title>
<polygon fill="none" stroke="black" points="278.5,-123 210.5,-123 210.5,-87 278.5,-87 278.5,-123"/>
<text text-anchor="middle" x="244.5" y="-101.3" font-family="Times,serif" font-size="14.00">plumes</text>
</g>
<!-- placenta&#45;&gt;plumes -->
<g id="edge9" class="edge">
<title>placenta&#45;&gt;plumes</title>
<path fill="none" stroke="black" d="M281.99,-173.8C275.36,-161.82 266.41,-145.62 258.91,-132.06"/>
<polygon fill="red" stroke="black" points="261.9,-130.23 254,-123.18 255.77,-133.62 261.9,-130.23"/>
<text text-anchor="middle" x="285" y="-144.8" font-family="Times,serif" font-size="14.00" fill="red">non</text>
</g>
<!-- chat -->
<g id="node13" class="node">
<title>chat</title>
<polygon fill="none" stroke="black" points="350.5,-123 296.5,-123 296.5,-87 350.5,-87 350.5,-123"/>
<text text-anchor="middle" x="323.5" y="-101.3" font-family="Times,serif" font-size="14.00">chat</text>
</g>
<!-- placenta&#45;&gt;chat -->
<g id="edge12" class="edge">
<title>placenta&#45;&gt;chat</title>
<path fill="none" stroke="black" d="M297.98,-173.8C302.4,-162.05 308.35,-146.24 313.39,-132.84"/>
<polygon fill="green" stroke="black" points="316.79,-133.77 317.03,-123.18 310.24,-131.3 316.79,-133.77"/>
<text text-anchor="middle" x="320.5" y="-144.8" font-family="Times,serif" font-size="14.00" fill="green">oui</text>
</g>
<!-- crocodile -->
<g id="node11" class="node">
<title>crocodile</title>
<polygon fill="none" stroke="black" points="236,-36 155,-36 155,0 236,0 236,-36"/>
<text text-anchor="middle" x="195.5" y="-14.3" font-family="Times,serif" font-size="14.00">crocodile</text>
</g>
<!-- plumes&#45;&gt;crocodile -->
<g id="edge10" class="edge">
<title>plumes&#45;&gt;crocodile</title>
<path fill="none" stroke="black" d="M234.58,-86.8C227.68,-74.82 218.34,-58.62 210.52,-45.06"/>
<polygon fill="red" stroke="black" points="213.43,-43.09 205.4,-36.18 207.36,-46.59 213.43,-43.09"/>
<text text-anchor="middle" x="237" y="-57.8" font-family="Times,serif" font-size="14.00" fill="red">non</text>
</g>
<!-- autruche -->
<g id="node12" class="node">
<title>autruche</title>
<polygon fill="none" stroke="black" points="334.5,-36 254.5,-36 254.5,0 334.5,0 334.5,-36"/>
<text text-anchor="middle" x="294.5" y="-14.3" font-family="Times,serif" font-size="14.00">autruche</text>
</g>
<!-- plumes&#45;&gt;autruche -->
<g id="edge11" class="edge">
<title>plumes&#45;&gt;autruche</title>
<path fill="none" stroke="black" d="M254.62,-86.8C261.67,-74.82 271.2,-58.62 279.17,-45.06"/>
<polygon fill="green" stroke="black" points="282.34,-46.57 284.4,-36.18 276.31,-43.02 282.34,-46.57"/>
<text text-anchor="middle" x="283.5" y="-57.8" font-family="Times,serif" font-size="14.00" fill="green">oui</text>
</g>
</g>
</svg>
